<svg xmlns="http://www.w3.org/2000/svg" xmlns:xlink="http://www.w3.org/1999/xlink" viewBox="0,0,256,256" width="24px" height="24px"><g fill-opacity="0.21176" fill="#000000" fill-rule="nonzero" stroke="none" stroke-width="1" stroke-linecap="butt" stroke-linejoin="miter" stroke-miterlimit="10" stroke-dasharray="" stroke-dashoffset="0" font-family="none" font-weight="none" font-size="none" text-anchor="none" style="mix-blend-mode: normal"><g transform="scale(10.66667,10.66667)"><path d="M10.5,3c-4.57432,0 -8.5,3.01048 -8.5,7c0,1.38583 0.55696,2.63899 1.375,3.70508l-0.45898,5.12109l3.68555,-2.66797c1.10446,0.47499 2.32152,0.78684 3.63281,0.82617c0.72438,2.32054 3.07338,3.97656 5.76563,3.97656c0.85268,0 1.6025,-0.27199 2.32617,-0.56445l3.76953,1.55078l-0.70703,-4.36133c0.31266,-0.65042 0.61133,-1.32549 0.61133,-2.10547c0,-2.06856 -1.24712,-3.8295 -3.04883,-4.76367c0.02927,-0.23624 0.04883,-0.47483 0.04883,-0.7168c0,-3.98952 -3.92568,-7 -8.5,-7zM10.5,5c3.70968,0 6.5,2.36152 6.5,5c0,0.02795 -0.00722,0.05421 -0.00781,0.08203c-0.32445,-0.05007 -0.65457,-0.08203 -0.99219,-0.08203c-3.06415,0 -5.68887,2.14333 -5.97266,4.97266c-1.15581,-0.06577 -2.22622,-0.35394 -3.12891,-0.82031l-0.54687,-0.2832l-1.05273,0.76367l0.13281,-1.49609l-0.28711,-0.32227c-0.73869,-0.82713 -1.14453,-1.78284 -1.14453,-2.81445c0,-2.63848 2.79032,-5 6.5,-5zM7.82813,6.61523c-0.648,0 -1.17187,0.52869 -1.17187,1.17969c0,0.652 0.52388,1.20508 1.17188,1.20508c0.648,0 1.17188,-0.55408 1.17188,-1.20508c0,-0.651 -0.52388,-1.17969 -1.17187,-1.17969zM13.19727,6.61523c-0.648,0 -1.19727,0.52869 -1.19727,1.17969c0,0.652 0.54827,1.20508 1.19727,1.20508c0.648,0 1.17188,-0.55308 1.17188,-1.20508c0,-0.651 -0.52488,-1.17969 -1.17187,-1.17969zM16,12c2.27663,0 4,1.60981 4,3.48047c0,0.56521 -0.17081,1.09544 -0.47656,1.60156l-0.18945,0.31445l0.05859,0.36328l0.1582,0.97656l-1.14844,-0.47266l-0.4082,0.20898c-0.60022,0.30507 -1.26942,0.48828 -1.99414,0.48828c-2.27663,0 -4,-1.60981 -4,-3.48047c0,-1.87066 1.72337,-3.48047 4,-3.48047zM14.02148,14c-0.552,0 -1.02148,0.447 -1.02148,1c0,0.553 0.47248,1 1.02148,1c0.549,0 0.99414,-0.447 0.99414,-1c0,-0.553 -0.44414,-1 -0.99414,-1zM17.99219,14c-0.5481,0.00045 -0.99219,0.44803 -0.99219,1c0,0.55197 0.44409,0.99955 0.99219,1c0.26356,0.0003 0.51642,-0.10492 0.70289,-0.29249c0.18647,-0.18757 0.29125,-0.4421 0.29125,-0.70751c0,-0.26542 -0.10478,-0.51994 -0.29125,-0.70751c-0.18647,-0.18757 -0.43934,-0.29279 -0.70289,-0.29249z"></path></g></g></svg>